<svg width="17" height="17" viewBox="0 0 17 17" fill="none" xmlns="http://www.w3.org/2000/svg">
<path d="M8.5 15.4062C12.3142 15.4062 15.4062 12.3142 15.4062 8.5C15.4062 4.68578 12.3142 1.59375 8.5 1.59375C4.68578 1.59375 1.59375 4.68578 1.59375 8.5C1.59375 12.3142 4.68578 15.4062 8.5 15.4062Z" fill="#EF314C"/>
<path d="M2.65625 8.49967C2.65613 7.38903 2.97251 6.30136 3.56832 5.36407C4.16414 4.42678 5.01472 3.67868 6.02042 3.20742C7.02611 2.73616 8.14528 2.56126 9.24681 2.70319C10.3483 2.84513 11.3866 3.29803 12.24 4.00884L4.00917 12.2397C3.13584 11.1889 2.65727 9.86596 2.65625 8.49967Z" fill="#FAC1C9"/>
<path d="M8.5 14.3435C7.1337 14.3425 5.81074 13.8639 4.76 12.9906L12.9908 4.75977C13.7016 5.61315 14.1545 6.65142 14.2965 7.75295C14.4384 8.85448 14.2635 9.97365 13.7922 10.9794C13.321 11.985 12.5729 12.8356 11.6356 13.4314C10.6983 14.0273 9.61063 14.3436 8.5 14.3435Z" fill="#FAC1C9"/>
</svg>
