<svg width="12" height="13" viewBox="0 0 12 13" fill="none" xmlns="http://www.w3.org/2000/svg">
<path d="M3.25 11.875C3.045 11.875 2.875 11.705 2.875 11.5V8C2.875 7.795 3.045 7.625 3.25 7.625C3.455 7.625 3.625 7.795 3.625 8V11.5C3.625 11.705 3.455 11.875 3.25 11.875Z" fill="white"/>
<path d="M3.25 3.375C3.045 3.375 2.875 3.205 2.875 3V1.5C2.875 1.295 3.045 1.125 3.25 1.125C3.455 1.125 3.625 1.295 3.625 1.5V3C3.625 3.205 3.455 3.375 3.25 3.375Z" fill="white"/>
<path d="M8.75 11.875C8.545 11.875 8.375 11.705 8.375 11.5V10C8.375 9.795 8.545 9.625 8.75 9.625C8.955 9.625 9.125 9.795 9.125 10V11.5C9.125 11.705 8.955 11.875 8.75 11.875Z" fill="white"/>
<path d="M8.75 5.375C8.545 5.375 8.375 5.205 8.375 5V1.5C8.375 1.295 8.545 1.125 8.75 1.125C8.955 1.125 9.125 1.295 9.125 1.5V5C9.125 5.205 8.955 5.375 8.75 5.375Z" fill="white"/>
<path d="M3.75 8.375H2.75C1.89 8.375 1.375 7.86 1.375 7V4C1.375 3.14 1.89 2.625 2.75 2.625H3.75C4.61 2.625 5.125 3.14 5.125 4V7C5.125 7.86 4.61 8.375 3.75 8.375ZM2.75 3.375C2.305 3.375 2.125 3.555 2.125 4V7C2.125 7.445 2.305 7.625 2.75 7.625H3.75C4.195 7.625 4.375 7.445 4.375 7V4C4.375 3.555 4.195 3.375 3.75 3.375H2.75Z" fill="white"/>
<path d="M9.25 10.375H8.25C7.39 10.375 6.875 9.86 6.875 9V6C6.875 5.14 7.39 4.625 8.25 4.625H9.25C10.11 4.625 10.625 5.14 10.625 6V9C10.625 9.86 10.11 10.375 9.25 10.375ZM8.25 5.375C7.805 5.375 7.625 5.555 7.625 6V9C7.625 9.445 7.805 9.625 8.25 9.625H9.25C9.695 9.625 9.875 9.445 9.875 9V6C9.875 5.555 9.695 5.375 9.25 5.375H8.25Z" fill="white"/>
</svg>
