<svg width="16" height="16" viewBox="0 0 16 16" fill="none" xmlns="http://www.w3.org/2000/svg">
<g clip-path="url(#clip0_125_1105)">
<path d="M12 8C11.2976 8.00082 10.6074 7.81645 9.99895 7.46547C9.39052 7.11448 8.88537 6.6093 8.53442 6.00085C8.18348 5.3924 7.99915 4.70217 8.00001 3.99977C8.00087 3.29736 8.1869 2.60759 8.53933 2H2.828L2.8 1.76533C2.74255 1.27907 2.50871 0.830769 2.14279 0.505403C1.77688 0.180036 1.30432 0.000208558 0.814667 0L0.666667 0C0.489856 0 0.320286 0.0702379 0.195262 0.195262C0.0702379 0.320286 0 0.489856 0 0.666667C0 0.843478 0.0702379 1.01305 0.195262 1.13807C0.320286 1.2631 0.489856 1.33333 0.666667 1.33333H0.814667C0.977956 1.33335 1.13556 1.3933 1.25758 1.50181C1.3796 1.61032 1.45756 1.75983 1.47667 1.922L2.394 9.722C2.48923 10.5332 2.87899 11.2812 3.48927 11.824C4.09956 12.3668 4.8879 12.6667 5.70467 12.6667H12.6667C12.8435 12.6667 13.013 12.5964 13.1381 12.4714C13.2631 12.3464 13.3333 12.1768 13.3333 12C13.3333 11.8232 13.2631 11.6536 13.1381 11.5286C13.013 11.4036 12.8435 11.3333 12.6667 11.3333H5.70467C5.29192 11.3323 4.8896 11.2036 4.5529 10.9649C4.21619 10.7262 3.96158 10.3891 3.824 10H11.7713C12.5529 10 13.3096 9.72549 13.9092 9.22429C14.5089 8.7231 14.9134 8.02713 15.052 7.258L15.2107 6.37867C14.8398 6.88144 14.3561 7.29009 13.7984 7.57171C13.2408 7.85332 12.6247 8.00002 12 8Z" fill="white"/>
<path d="M4.66658 16.0006C5.40296 16.0006 5.99991 15.4037 5.99991 14.6673C5.99991 13.9309 5.40296 13.334 4.66658 13.334C3.9302 13.334 3.33325 13.9309 3.33325 14.6673C3.33325 15.4037 3.9302 16.0006 4.66658 16.0006Z" fill="white"/>
<path d="M11.3333 16.0006C12.0697 16.0006 12.6667 15.4037 12.6667 14.6673C12.6667 13.9309 12.0697 13.334 11.3333 13.334C10.597 13.334 10 13.9309 10 14.6673C10 15.4037 10.597 16.0006 11.3333 16.0006Z" fill="white"/>
<path d="M10.4887 5.96389C10.6034 6.08772 10.742 6.18702 10.8961 6.25577C11.0502 6.32452 11.2167 6.3613 11.3854 6.36389H11.4074C11.5728 6.36443 11.7366 6.33212 11.8894 6.26884C12.0422 6.20555 12.1809 6.11254 12.2974 5.99522L15.1454 3.14722C15.271 3.02186 15.3417 2.85173 15.3419 2.67426C15.3421 2.49679 15.2718 2.32651 15.1464 2.20089C15.021 2.07526 14.8509 2.00458 14.6734 2.00439C14.496 2.00421 14.3257 2.07453 14.2001 2.19989L11.4087 4.99589L10.5861 4.11322C10.4653 3.98388 10.2981 3.90782 10.1213 3.90175C9.94442 3.89569 9.77241 3.96012 9.64307 4.08089C9.51374 4.20165 9.43767 4.36884 9.43161 4.54569C9.42554 4.72254 9.48998 4.89455 9.61074 5.02389L10.4887 5.96389Z" fill="white"/>
</g>
<defs>
<clipPath id="clip0_125_1105">
<rect width="16" height="16" fill="white"/>
</clipPath>
</defs>
</svg>
