<svg width="24" height="24" viewBox="0 0 24 24" fill="none" xmlns="http://www.w3.org/2000/svg">
<path d="M12 14C11.2089 14 10.4355 14.2346 9.77772 14.6741C9.11993 15.1136 8.60723 15.7384 8.30448 16.4693C8.00173 17.2002 7.92252 18.0044 8.07686 18.7804C8.2312 19.5563 8.61216 20.269 9.17157 20.8284C9.73098 21.3878 10.4437 21.7688 11.2196 21.9231C11.9956 22.0775 12.7998 21.9983 13.5307 21.6955C14.2616 21.3928 14.8864 20.8801 15.3259 20.2223C15.7654 19.5645 16 18.7911 16 18C15.9988 16.9395 15.577 15.9228 14.8271 15.1729C14.0772 14.423 13.0605 14.0012 12 14ZM12 17.5C12.3534 17.4993 12.6957 17.6238 12.9661 17.8512C13.2366 18.0787 13.4178 18.3946 13.4777 18.7429C13.5376 19.0912 13.4723 19.4495 13.2933 19.7542C13.1144 20.059 12.8333 20.2906 12.5 20.408V20.5C12.5 20.6326 12.4473 20.7598 12.3536 20.8536C12.2598 20.9473 12.1326 21 12 21C11.8674 21 11.7402 20.9473 11.6464 20.8536C11.5527 20.7598 11.5 20.6326 11.5 20.5V20.408C11.2085 20.305 10.956 20.1144 10.777 19.8624C10.598 19.6103 10.5013 19.3091 10.5 19C10.5 18.8674 10.5527 18.7402 10.6464 18.6464C10.7402 18.5527 10.8674 18.5 11 18.5C11.1326 18.5 11.2598 18.5527 11.3536 18.6464C11.4473 18.7402 11.5 18.8674 11.5 19C11.5 19.0989 11.5293 19.1956 11.5843 19.2778C11.6392 19.36 11.7173 19.4241 11.8087 19.4619C11.9 19.4998 12.0006 19.5097 12.0975 19.4904C12.1945 19.4711 12.2836 19.4235 12.3536 19.3536C12.4235 19.2836 12.4711 19.1945 12.4904 19.0975C12.5097 19.0006 12.4998 18.9 12.4619 18.8087C12.4241 18.7173 12.36 18.6392 12.2778 18.5843C12.1956 18.5293 12.0989 18.5 12 18.5C11.6466 18.5007 11.3043 18.3762 11.0339 18.1488C10.7634 17.9213 10.5822 17.6054 10.5223 17.2571C10.4624 16.9088 10.5277 16.5505 10.7067 16.2458C10.8856 15.941 11.1667 15.7094 11.5 15.592V15.5C11.5 15.3674 11.5527 15.2402 11.6464 15.1464C11.7402 15.0527 11.8674 15 12 15C12.1326 15 12.2598 15.0527 12.3536 15.1464C12.4473 15.2402 12.5 15.3674 12.5 15.5V15.592C12.7915 15.695 13.044 15.8856 13.223 16.1376C13.402 16.3897 13.4987 16.6909 13.5 17C13.5 17.1326 13.4473 17.2598 13.3536 17.3536C13.2598 17.4473 13.1326 17.5 13 17.5C12.8674 17.5 12.7402 17.4473 12.6464 17.3536C12.5527 17.2598 12.5 17.1326 12.5 17C12.5 16.9011 12.4707 16.8044 12.4157 16.7222C12.3608 16.64 12.2827 16.5759 12.1913 16.5381C12.1 16.5002 11.9994 16.4903 11.9025 16.5096C11.8055 16.5289 11.7164 16.5765 11.6464 16.6464C11.5765 16.7164 11.5289 16.8055 11.5096 16.9025C11.4903 16.9994 11.5002 17.1 11.5381 17.1913C11.5759 17.2827 11.64 17.3608 11.7222 17.4157C11.8044 17.4707 11.9011 17.5 12 17.5Z" fill="#1857CD"/>
<path d="M5.5 5H7.5V8H5.5V5Z" fill="#1857CD"/>
<path d="M8.5 5H10.5V8H8.5V5Z" fill="#1857CD"/>
<path d="M9 11H22V4.5C22 3.83696 21.7366 3.20107 21.2678 2.73223C20.7989 2.26339 20.163 2 19.5 2H4.5C3.83696 2 3.20107 2.26339 2.73223 2.73223C2.26339 3.20107 2 3.83696 2 4.5V11H6.5C6.63261 11 6.75979 11.0527 6.85355 11.1464C6.94732 11.2402 7 11.3674 7 11.5C7 11.6326 6.94732 11.7598 6.85355 11.8536C6.75979 11.9473 6.63261 12 6.5 12H2V13.5C2 14.163 2.26339 14.7989 2.73223 15.2678C3.20107 15.7366 3.83696 16 4.5 16H7.42C7.80854 15.1084 8.44887 14.3496 9.26244 13.8167C10.076 13.2838 11.0274 12.9999 12 12.9999C12.9726 12.9999 13.924 13.2838 14.7376 13.8167C15.5511 14.3496 16.1915 15.1084 16.58 16H19.5C20.163 16 20.7989 15.7366 21.2678 15.2678C21.7366 14.7989 22 14.163 22 13.5V12H9C8.86739 12 8.74021 11.9473 8.64645 11.8536C8.55268 11.7598 8.5 11.6326 8.5 11.5C8.5 11.3674 8.55268 11.2402 8.64645 11.1464C8.74021 11.0527 8.86739 11 9 11ZM13 4H16C16.1326 4 16.2598 4.05268 16.3536 4.14645C16.4473 4.24022 16.5 4.36739 16.5 4.5C16.5 4.63261 16.4473 4.75979 16.3536 4.85355C16.2598 4.94732 16.1326 5 16 5H13C12.8674 5 12.7402 4.94732 12.6464 4.85355C12.5527 4.75979 12.5 4.63261 12.5 4.5C12.5 4.36739 12.5527 4.24022 12.6464 4.14645C12.7402 4.05268 12.8674 4 13 4ZM13 6H19C19.1326 6 19.2598 6.05268 19.3536 6.14645C19.4473 6.24022 19.5 6.36739 19.5 6.5C19.5 6.63261 19.4473 6.75979 19.3536 6.85355C19.2598 6.94732 19.1326 7 19 7H13C12.8674 7 12.7402 6.94732 12.6464 6.85355C12.5527 6.75979 12.5 6.63261 12.5 6.5C12.5 6.36739 12.5527 6.24022 12.6464 6.14645C12.7402 6.05268 12.8674 6 13 6ZM13 8H19C19.1326 8 19.2598 8.05268 19.3536 8.14645C19.4473 8.24022 19.5 8.36739 19.5 8.5C19.5 8.63261 19.4473 8.75979 19.3536 8.85355C19.2598 8.94732 19.1326 9 19 9H13C12.8674 9 12.7402 8.94732 12.6464 8.85355C12.5527 8.75979 12.5 8.63261 12.5 8.5C12.5 8.36739 12.5527 8.24022 12.6464 8.14645C12.7402 8.05268 12.8674 8 13 8ZM5 9C4.86739 9 4.74021 8.94732 4.64645 8.85355C4.55268 8.75979 4.5 8.63261 4.5 8.5V4.5C4.5 4.36739 4.55268 4.24022 4.64645 4.14645C4.74021 4.05268 4.86739 4 5 4H11C11.1326 4 11.2598 4.05268 11.3536 4.14645C11.4473 4.24022 11.5 4.36739 11.5 4.5V8.5C11.5 8.63261 11.4473 8.75979 11.3536 8.85355C11.2598 8.94732 11.1326 9 11 9H5Z" fill="#1857CD"/>
</svg>
