<svg width="240" height="240" viewBox="0 0 240 240" fill="none" xmlns="http://www.w3.org/2000/svg">
<path d="M212.952 113.004C198.228 149.976 162.156 176.196 120 176.196C77.844 176.196 41.772 149.964 27.048 113.004C18.964 116.91 12.1413 123.011 7.35858 130.609C2.57589 138.208 0.0260044 146.998 0 155.976V192C0 218.472 21.528 240 48 240H192C218.472 240 240 218.472 240 192V155.976C239.974 146.998 237.424 138.208 232.641 130.609C227.859 123.011 221.036 116.91 212.952 113.004Z" fill="#EB5757"/>
<path fill-rule="evenodd" clip-rule="evenodd" d="M196.092 76.104C196.092 118.056 161.964 152.196 120 152.196C78.036 152.196 43.908 118.044 43.908 76.092C43.908 34.14 78.036 0 120 0C161.964 0 196.092 34.152 196.092 76.104ZM149.916 87.78C154.608 92.472 154.992 100.488 149.916 104.748C140.82 112.368 132.948 104.748 132.948 104.748L120 91.8L107.052 104.748C97.86 112.368 90.084 104.748 90.084 104.748C88.9687 103.635 88.0838 102.312 87.4801 100.856C86.8763 99.4006 86.5656 97.84 86.5656 96.264C86.5656 94.688 86.8763 93.1275 87.4801 91.6717C88.0838 90.216 88.9687 88.8935 90.084 87.78L103.032 74.832L90.084 61.884C87.8339 59.6339 86.5698 56.5822 86.5698 53.4C86.5698 50.2179 87.8339 47.1661 90.084 44.916C92.3341 42.6659 95.3859 41.4019 98.568 41.4019C101.75 41.4019 104.802 42.6659 107.052 44.916L120 57.864L132.948 44.916C134.062 43.8019 135.385 42.9181 136.84 42.3152C138.296 41.7122 139.856 41.4019 141.432 41.4019C143.008 41.4019 144.568 41.7122 146.024 42.3152C147.479 42.9181 148.802 43.8019 149.916 44.916C151.03 46.0302 151.914 47.3528 152.517 48.8085C153.12 50.2642 153.43 51.8244 153.43 53.4C153.43 54.9757 153.12 56.5359 152.517 57.9916C151.914 59.4472 151.03 60.7699 149.916 61.884L136.968 74.832L149.916 87.78Z" fill="#EB5757"/>
</svg>
