<svg width="16" height="20" viewBox="0 0 16 20" fill="none" xmlns="http://www.w3.org/2000/svg">
<path d="M-3.05176e-05 20V18H1.99997V15C1.99997 13.9833 2.23747 13.0292 2.71247 12.1375C3.18747 11.2458 3.84997 10.5333 4.69997 10C3.84997 9.46667 3.18747 8.75417 2.71247 7.8625C2.23747 6.97083 1.99997 6.01667 1.99997 5V2H-3.05176e-05V0H16V2H14V5C14 6.01667 13.7625 6.97083 13.2875 7.8625C12.8125 8.75417 12.15 9.46667 11.3 10C12.15 10.5333 12.8125 11.2458 13.2875 12.1375C13.7625 13.0292 14 13.9833 14 15V18H16V20H-3.05176e-05Z" fill="white"/>
</svg>
