<svg width="12" height="12" viewBox="0 0 12 12" fill="none" xmlns="http://www.w3.org/2000/svg">
<g clip-path="url(#clip0_134_1155)">
<path d="M6 0C3.89145 0 2.13281 1.69852 2.13281 3.86719C2.13281 4.69223 2.38073 5.42794 2.85654 6.11733L5.70405 10.5606C5.8422 10.7766 6.15809 10.7762 6.29595 10.5606L9.15581 6.10221C9.62138 5.44406 9.86719 4.67126 9.86719 3.86719C9.86719 1.73482 8.13237 0 6 0ZM6 5.625C5.03079 5.625 4.24219 4.8364 4.24219 3.86719C4.24219 2.89798 5.03079 2.10938 6 2.10938C6.96921 2.10938 7.75781 2.89798 7.75781 3.86719C7.75781 4.8364 6.96921 5.625 6 5.625Z" fill="#1857CD"/>
<path d="M8.74837 8.07861L6.97812 10.8463C6.51989 11.5607 5.47755 11.5584 5.02153 10.847L3.24839 8.07934C1.6883 8.44004 0.726562 9.10082 0.726562 9.89045C0.726562 11.2607 3.44362 11.9998 6 11.9998C8.55638 11.9998 11.2734 11.2607 11.2734 9.89045C11.2734 9.10025 10.3104 8.43913 8.74837 8.07861Z" fill="#1857CD"/>
</g>
<defs>
<clipPath id="clip0_134_1155">
<rect width="12" height="12" fill="white"/>
</clipPath>
</defs>
</svg>
