<svg width="18" height="18" viewBox="0 0 18 18" fill="none" xmlns="http://www.w3.org/2000/svg">
<path d="M9.63001 10.845L14.715 5.76L13.455 4.455L9.63001 8.28L7.69501 6.39L6.43501 7.65L9.63001 10.845ZM5.40001 14.4C4.90501 14.4 4.48126 14.2238 4.12876 13.8713C3.77626 13.5188 3.60001 13.095 3.60001 12.6V1.8C3.60001 1.305 3.77626 0.88125 4.12876 0.52875C4.48126 0.17625 4.90501 0 5.40001 0H16.2C16.695 0 17.1188 0.17625 17.4713 0.52875C17.8238 0.88125 18 1.305 18 1.8V12.6C18 13.095 17.8238 13.5188 17.4713 13.8713C17.1188 14.2238 16.695 14.4 16.2 14.4H5.40001ZM1.80001 18C1.30501 18 0.881258 17.8237 0.528758 17.4713C0.176258 17.1187 7.62939e-06 16.695 7.62939e-06 16.2V3.6H1.80001V16.2H14.4V18H1.80001Z" fill="white"/>
</svg>
