<svg width="250" height="200" viewBox="0 0 250 200" fill="none" xmlns="http://www.w3.org/2000/svg">
<path fill-rule="evenodd" clip-rule="evenodd" d="M207 65C210.866 65 214 68.134 214 72C214 75.866 210.866 79 207 79H167C170.866 79 174 82.134 174 86C174 89.866 170.866 93 167 93H189C192.866 93 196 96.134 196 100C196 103.866 192.866 107 189 107H178.826C173.952 107 170 110.134 170 114C170 116.577 172 118.911 176 121C179.866 121 183 124.134 183 128C183 131.866 179.866 135 176 135H93C89.134 135 86 131.866 86 128C86 124.134 89.134 121 93 121H54C50.134 121 47 117.866 47 114C47 110.134 50.134 107 54 107H94C97.866 107 101 103.866 101 100C101 96.134 97.866 93 94 93H69C65.134 93 62 89.866 62 86C62 82.134 65.134 79 69 79H109C105.134 79 102 75.866 102 72C102 68.134 105.134 65 109 65H207ZM207 93C210.866 93 214 96.134 214 100C214 103.866 210.866 107 207 107C203.134 107 200 103.866 200 100C200 96.134 203.134 93 207 93Z" fill="#F3F7FF"/>
<path d="M131.253 50.0049C113.048 50.0049 98.2526 64.7999 98.2526 83.0049V98.8999C98.2526 102.255 96.8226 107.37 95.1176 110.23L88.7926 120.735C84.8876 127.225 87.5826 134.43 94.7326 136.85C118.438 144.77 144.013 144.77 167.718 136.85C174.373 134.65 177.288 126.785 173.658 120.735L167.333 110.23C165.683 107.37 164.253 102.255 164.253 98.8999V83.0049C164.253 64.8549 149.403 50.0049 131.253 50.0049Z" stroke="#1857CD" stroke-width="2.5" stroke-miterlimit="10" stroke-linecap="round"/>
<path d="M65.704 39H77.65V41.09L68.498 52.332H77.87V54.708H65V52.464L74.152 41.376H65.704V39Z" fill="#1857CD"/>
<path d="M82.3738 54.2839H91.0618V55.8039L84.4058 63.9799H91.2218V65.7079H81.8618V64.0759L88.5178 56.0119H82.3738V54.2839Z" fill="#1857CD"/>
<path d="M112.073 96.0001C112.358 96.0001 112.631 96.1131 112.832 96.3143C113.033 96.5156 113.146 96.7885 113.146 97.0731C113.137 97.727 113.258 98.3762 113.501 98.9831C113.745 99.5899 114.107 100.142 114.566 100.608C115.025 101.074 115.573 101.443 116.176 101.696C116.779 101.948 117.427 102.078 118.081 102.078C118.735 102.078 119.382 101.948 119.985 101.696C120.589 101.443 121.136 101.074 121.595 100.608C122.054 100.142 122.416 99.5899 122.66 98.9831C122.904 98.3762 123.024 97.727 123.015 97.0731C123.015 96.7885 123.128 96.5156 123.329 96.3143C123.531 96.1131 123.804 96.0001 124.088 96.0001C124.373 96.0001 124.646 96.1131 124.847 96.3143C125.048 96.5156 125.161 96.7885 125.161 97.0731C125.161 98.9509 124.415 100.752 123.087 102.08C121.759 103.408 119.958 104.154 118.081 104.154C116.203 104.154 114.402 103.408 113.074 102.08C111.746 100.752 111 98.9509 111 97.0731C111 96.7885 111.113 96.5156 111.314 96.3143C111.516 96.1131 111.789 96.0001 112.073 96.0001Z" fill="#1857CD"/>
<path d="M136.961 96.0001C137.245 96.0001 137.518 96.1131 137.72 96.3143C137.921 96.5156 138.034 96.7885 138.034 97.0731C138.025 97.727 138.145 98.3762 138.389 98.9831C138.633 99.5899 138.995 100.142 139.454 100.608C139.913 101.074 140.46 101.443 141.064 101.696C141.667 101.948 142.314 102.078 142.968 102.078C143.622 102.078 144.27 101.948 144.873 101.696C145.476 101.443 146.024 101.074 146.483 100.608C146.942 100.142 147.304 99.5899 147.548 98.9831C147.791 98.3762 147.912 97.727 147.903 97.0731C147.903 96.7885 148.016 96.5156 148.217 96.3143C148.418 96.1131 148.691 96.0001 148.976 96.0001C149.26 96.0001 149.533 96.1131 149.735 96.3143C149.936 96.5156 150.049 96.7885 150.049 97.0731C150.049 98.9509 149.303 100.752 147.975 102.08C146.647 103.408 144.846 104.154 142.968 104.154C141.09 104.154 139.29 103.408 137.962 102.08C136.634 100.752 135.888 98.9509 135.888 97.0731C135.888 96.7885 136.001 96.5156 136.202 96.3143C136.403 96.1131 136.676 96.0001 136.961 96.0001Z" fill="#1857CD"/>
<path d="M136.532 114.456H124.088C123.947 114.456 123.807 114.428 123.677 114.374C123.546 114.32 123.428 114.24 123.328 114.14C123.228 114.04 123.149 113.921 123.096 113.791C123.042 113.66 123.015 113.52 123.015 113.379C123.015 113.094 123.128 112.821 123.329 112.62C123.531 112.419 123.804 112.306 124.088 112.306H136.532C136.817 112.306 137.09 112.419 137.291 112.62C137.492 112.821 137.605 113.094 137.605 113.379C137.605 113.663 137.492 113.936 137.291 114.138C137.09 114.339 136.817 114.452 136.532 114.452V114.456Z" fill="#1857CD"/>
<path d="M141.285 51.5999C134.634 49.7057 127.586 49.7057 120.935 51.5999C122.53 47.5299 126.49 44.6699 131.11 44.6699C135.73 44.6699 139.69 47.5299 141.285 51.5999Z" stroke="#1857CD" stroke-width="2.5" stroke-miterlimit="10" stroke-linecap="round" stroke-linejoin="round"/>
<path d="M141 145C141 150.5 136.5 155 131 155C128.267 155 125.733 153.867 123.933 152.067C122.061 150.191 121.006 147.651 121 145" stroke="#1857CD" stroke-width="2.5" stroke-miterlimit="10" stroke-linecap="round"/>
<path fill-rule="evenodd" clip-rule="evenodd" d="M172.789 57.2236C171.875 54.9371 170.063 53.1253 167.776 52.2105L166 51.4999L167.776 50.7893C170.063 49.8745 171.875 48.0627 172.789 45.7762L173.5 43.9999L174.211 45.7762C175.125 48.0627 176.937 49.8745 179.224 50.7893L181 51.4999L179.224 52.2105C176.937 53.1253 175.125 54.9371 174.211 57.2236L173.5 58.9999L172.789 57.2236Z" stroke="#1857CD" stroke-width="2.5" stroke-linejoin="round"/>
</svg>
