<svg width="18" height="19" viewBox="0 0 18 19" fill="none" xmlns="http://www.w3.org/2000/svg">
<path d="M5.0445 15.5992C5.91878 15.5992 7.35621 15.5189 9.30021 15.1608C8.964 16.0749 8.08778 16.73 7.05857 16.73C6.20293 16.73 5.45335 16.2768 5.03035 15.5992H5.0445ZM16.0219 10.6119C16.1807 11.4297 15.6073 12.1529 14.3164 12.7629C13.6093 13.0966 12.0369 13.7317 9.43971 14.237C7.43657 14.6259 5.96893 14.7153 5.04514 14.7153C4.77064 14.7153 4.54371 14.7076 4.365 14.6973C2.94043 14.6157 2.13685 14.1592 1.97807 13.3415C1.737 12.1027 2.11821 11.6244 2.75014 10.8324L2.91664 10.6235C3.34285 10.0829 3.50935 9.55188 3.23678 8.15109C2.62671 5.01395 4.03971 2.87002 7.11257 2.26959C10.1867 1.67623 12.3004 3.13295 12.9105 6.27073C13.1824 7.67152 13.536 8.10095 14.1339 8.44231V8.44295L14.3666 8.57473C15.2486 9.07231 15.7809 9.37252 16.0219 10.6119Z" fill="#1857CD"/>
</svg>
