<svg width="309" height="269" viewBox="0 0 309 269" fill="none" xmlns="http://www.w3.org/2000/svg">
<g clip-path="url(#clip0_137_1128)">
<path d="M159.695 9.72876H0V119.683H159.695V9.72876Z" fill="#CDDDF9"/>
<path d="M92.7672 49.7427H0V54.7416H92.7672V49.7427Z" fill="#AEC5E5"/>
<path d="M159.695 73.9077H98.9248V78.9066H159.695V73.9077Z" fill="#AEC5E5"/>
<path d="M98.9248 9.72876H92.7672V119.683H98.9248V9.72876Z" fill="#AEC5E5"/>
<path d="M51.0074 0C45.4133 0 40.0483 2.22476 36.0927 6.18487C32.137 10.145 29.9148 15.5161 29.9148 21.1165C29.9148 32.7732 51.0074 52.8361 51.0074 52.8361C51.0074 52.8361 72.0776 32.7732 72.0776 21.1165C72.0806 18.3445 71.5378 15.5991 70.4802 13.0372C69.4226 10.4754 67.871 8.14738 65.9142 6.18624C63.9574 4.22509 61.6336 2.66929 59.0758 1.60781C56.518 0.546333 53.7763 -1.56525e-06 51.0074 0ZM51.0074 23.4703C49.6788 23.4703 48.3801 23.0758 47.2754 22.3369C46.1707 21.5979 45.3098 20.5476 44.8013 19.3188C44.2929 18.0899 44.1599 16.7378 44.4191 15.4332C44.6783 14.1287 45.3181 12.9305 46.2575 11.99C47.197 11.0494 48.3939 10.4089 49.6969 10.1494C51 9.88996 52.3506 10.0231 53.578 10.5321C54.8055 11.0411 55.8546 11.9031 56.5927 13.009C57.3308 14.1149 57.7248 15.4152 57.7248 16.7453C57.7248 18.5288 57.0171 20.2393 55.7573 21.5005C54.4976 22.7617 52.789 23.4703 51.0074 23.4703Z" fill="#2571FF"/>
<path d="M169.883 227.036H66.5917V163.709L101.903 100.382H169.883V227.036Z" fill="#7AA5EA"/>
<path d="M412.246 57.1848H169.883V227.058H412.246V57.1848Z" fill="#F5F5F5"/>
<path d="M66.5917 163.709H128.078V107.152H98.1187L66.5917 163.709Z" fill="white"/>
<path d="M169.883 210.493H62.8076V230.533H169.883V210.493Z" fill="#2571FF"/>
<path d="M78.9517 192.559H71.6522V207.354H78.9517V192.559Z" fill="#2571FF"/>
<path d="M71.6522 192.559H64.3526V207.354H71.6522V192.559Z" fill="white"/>
<path d="M156.291 107.152H133.654V163.709H156.291V107.152Z" fill="#2571FF"/>
<path d="M309.022 210.493H169.883V230.533H309.022V210.493Z" fill="#7AA5EA"/>
<path d="M183.542 57.1848H169.883V210.492H183.542V57.1848Z" fill="#CDDDF9"/>
<path d="M156.984 240.666C159.88 222.887 147.831 206.125 130.072 203.226C112.313 200.328 95.57 212.39 92.6746 230.169C89.7793 247.948 101.828 264.71 119.587 267.609C137.346 270.507 154.089 258.445 156.984 240.666Z" fill="#2571FF"/>
<path d="M142.388 241.453C145.694 231.764 140.529 221.227 130.851 217.917C121.173 214.607 110.648 219.779 107.342 229.468C104.036 239.156 109.201 249.694 118.879 253.004C128.557 256.313 139.083 251.142 142.388 241.453Z" fill="#B4CCEF"/>
<path d="M124.832 251.313C133.698 251.313 140.886 244.117 140.886 235.24C140.886 226.364 133.698 219.168 124.832 219.168C115.965 219.168 108.777 226.364 108.777 235.24C108.777 244.117 115.965 251.313 124.832 251.313Z" fill="#E3ECFF"/>
<path d="M128.056 162.095H66.5917V163.709H128.056V162.095Z" fill="#2571FF"/>
<path d="M282.466 176.935H201.231V180.23H282.466V176.935Z" fill="#03EB97"/>
<path d="M224.159 113.765H142.924V117.06H224.159V113.765Z" fill="#03EB97"/>
<path d="M234.616 240.105H153.38V243.4H234.616V240.105Z" fill="#2571FF"/>
<path d="M320.688 189.264H239.453V192.559H320.688V189.264Z" fill="#03EB97"/>
</g>
<defs>
<clipPath id="clip0_137_1128">
<rect width="309" height="269" fill="white"/>
</clipPath>
</defs>
</svg>
