<svg width="316" height="298" viewBox="0 0 316 298" fill="none" xmlns="http://www.w3.org/2000/svg">
<g style="mix-blend-mode:multiply">
<path d="M270.525 253.348H37.2188V265.45H270.525V253.348Z" fill="#B8B8B8"/>
</g>
<path d="M223.388 111.902H47.045V256.139H223.388V111.902Z" fill="#037EE6"/>
<path d="M260.194 111.902H217.214V256.139H260.194V111.902Z" fill="#0060C8"/>
<path d="M89.9776 111.902H47.045L23.0201 85.0281H65.9526L89.9776 111.902Z" fill="#329CFF"/>
<path d="M217.214 111.902H260.146L284.171 85.0281H241.239L217.214 111.902Z" fill="#329CFF"/>
<path d="M166.089 158.915H47.045V221.06H166.089V158.915Z" fill="white"/>
<path d="M140.406 170.752H56.4868V175.636H140.406V170.752Z" fill="#037EE6"/>
<path d="M140.406 181.578H56.4868V186.462H140.406V181.578Z" fill="#037EE6"/>
<path d="M97.113 192.381H56.4868V197.265H97.113V192.381Z" fill="#037EE6"/>
<path d="M176.708 198.396C176.708 200.775 176.003 203.101 174.683 205.079C173.363 207.058 171.487 208.599 169.292 209.51C167.097 210.42 164.682 210.659 162.352 210.194C160.022 209.73 157.881 208.585 156.201 206.902C154.521 205.22 153.377 203.076 152.914 200.743C152.45 198.409 152.688 195.991 153.597 193.792C154.506 191.594 156.046 189.715 158.021 188.394C159.997 187.072 162.319 186.366 164.695 186.366C167.881 186.366 170.937 187.634 173.189 189.89C175.442 192.146 176.708 195.205 176.708 198.396Z" fill="#03EB97"/>
<path d="M120.537 53.9914L139.757 85.004L170.749 65.7564C170.749 65.7564 193.861 54.0395 197.177 40.1331C200.732 24.9516 192.035 13.4272 178.726 10.2995C174.691 9.35008 170.483 9.42967 166.487 10.531C162.491 11.6322 158.835 13.72 155.854 16.603C154.472 12.6932 152.131 9.19409 149.045 6.42769C145.959 3.66128 142.228 1.71637 138.196 0.771908C124.862 -2.35582 111.96 4.06807 108.405 19.2496C105.161 33.18 120.537 53.9914 120.537 53.9914Z" fill="#03EB97"/>
</svg>
