<svg width="232" height="287" viewBox="0 0 232 287" fill="none" xmlns="http://www.w3.org/2000/svg">
<g clip-path="url(#clip0_136_6910)">
<path d="M172.352 20.1526H54.3829C41.968 20.1526 31.8867 28.1159 31.8867 37.9574V250.188C31.8867 260.03 41.968 268.012 54.3829 268.012H172.352C184.767 268.012 194.755 260.03 194.755 250.188V37.9574C194.755 28.1159 184.674 20.1526 172.352 20.1526Z" fill="#5A5A5A"/>
<path d="M171.624 25.7871H55.0176C45.6831 25.7871 38.0101 31.816 38.0101 39.2534V248.892C38.0101 256.405 45.6271 262.359 55.0176 262.359H171.624C180.959 262.359 188.632 256.33 188.632 248.892V39.2534C188.632 31.816 181.015 25.7871 171.624 25.7871Z" fill="#E3ECFF"/>
<path d="M26.342 89.2496C22.9058 89.2496 19.6103 87.8763 17.1805 85.4319C14.7507 82.9875 13.3857 79.6721 13.3857 76.2152L43.4055 25.8245H69.2994L39.2796 76.1025C39.2944 77.8221 38.9708 79.5276 38.3275 81.1208C37.6842 82.714 36.7338 84.1634 35.5312 85.3855C34.3286 86.6076 32.8975 87.5781 31.3204 88.2413C29.7433 88.9045 28.0513 89.2472 26.342 89.2496Z" fill="#037EE6"/>
<path d="M52.18 89.2497C50.4706 89.2473 48.7786 88.9046 47.2015 88.2415C45.6244 87.5783 44.1933 86.6077 42.9907 85.3856C41.7881 84.1636 40.8378 82.7142 40.1944 81.121C39.5511 79.5278 39.2275 77.8222 39.2423 76.1027L69.2621 25.7119H95.156L65.1363 76.1027C65.1511 77.8238 64.8269 79.5309 64.1824 81.1253C63.5379 82.7197 62.5858 84.17 61.3813 85.3923C60.1767 86.6146 58.7434 87.5848 57.1641 88.2469C55.5849 88.9089 53.8909 89.2498 52.18 89.2497Z" fill="#03EB97"/>
<path d="M78.0365 89.2496C74.6035 89.2446 71.3128 87.8691 68.8871 85.4253C66.4613 82.9814 65.0989 79.6689 65.0989 76.2152L95.1 25.8245H121.013L90.9928 76.1025C91.0076 77.8237 90.6834 79.5308 90.0389 81.1252C89.3944 82.7196 88.4424 84.1698 87.2378 85.3921C86.0333 86.6145 84.5999 87.5847 83.0207 88.2467C81.4414 88.9088 79.7474 89.2496 78.0365 89.2496Z" fill="#037EE6"/>
<path d="M103.893 89.2496C100.457 89.2496 97.1614 87.8763 94.7317 85.4319C92.3019 82.9875 90.9368 79.6721 90.9368 76.2152L120.957 25.8245H146.851L116.831 76.1025C116.846 77.8221 116.522 79.5276 115.879 81.1208C115.235 82.714 114.285 84.1634 113.082 85.3855C111.88 86.6076 110.449 87.5781 108.872 88.2413C107.294 88.9045 105.602 89.2472 103.893 89.2496Z" fill="#03EB97"/>
<path d="M129.75 89.2496C126.314 89.2496 123.018 87.8763 120.588 85.4319C118.158 82.9875 116.793 79.6721 116.793 76.2152L146.813 25.8245H172.707L142.687 76.1025C142.702 77.8221 142.379 79.5276 141.735 81.1208C141.092 82.714 140.142 84.1634 138.939 85.3855C137.736 86.6076 136.305 87.5781 134.728 88.2413C133.151 88.9045 131.459 89.2472 129.75 89.2496Z" fill="#037EE6"/>
<path d="M172.757 25.7883L142.514 76.1173C142.448 77.8694 143.243 79.6021 143.864 81.2404C144.485 82.8787 145.428 84.3742 146.637 85.6373C147.845 86.9004 149.295 87.9052 150.899 88.5915C152.503 89.2778 154.228 89.6316 155.97 89.6316C157.713 89.6316 159.438 89.2778 161.042 88.5915C162.646 87.9052 164.095 86.9004 165.304 85.6373C166.513 84.3742 167.456 82.8787 168.077 81.2404C168.698 79.6021 168.984 77.8546 168.917 76.1025L188.819 42.6715V39.1781C188.819 32.1351 181.588 26.2579 172.757 25.7883Z" fill="#03EB97"/>
<path d="M132.718 221.171H79.1193V224.495H132.718V221.171Z" fill="#7AA5EA"/>
<path d="M169.627 123.714L143.303 110.661H127.024C127.143 111.387 127.206 112.122 127.211 112.858C127.211 116.634 125.72 120.255 123.066 122.925C120.412 125.595 116.813 127.094 113.06 127.094C109.307 127.094 105.707 125.595 103.053 122.925C100.399 120.255 98.9085 116.634 98.9085 112.858C98.9135 112.122 98.9759 111.387 99.0952 110.661H82.7411L56.4178 123.714V145.012H79.2873V200.061H146.701V145.012H169.571L169.627 123.714Z" fill="#037EE6"/>
<path d="M113.06 120.389C110.212 120.477 107.394 119.786 104.905 118.391C102.416 116.995 100.35 114.947 98.9272 112.464C98.9272 112.595 98.9272 112.727 98.9272 112.858C98.9272 116.634 100.418 120.255 103.072 122.925C105.726 125.595 109.325 127.094 113.078 127.094C116.831 127.094 120.431 125.595 123.085 122.925C125.739 120.255 127.229 116.634 127.229 112.858C127.229 112.727 127.229 112.595 127.229 112.464C125.803 114.952 123.731 117.005 121.236 118.401C118.74 119.797 115.914 120.484 113.06 120.389Z" fill="#1540BA"/>
<path d="M87.371 138.232H102.922V146.74C102.922 148.628 102.177 150.438 100.85 151.773C99.523 153.108 97.7233 153.858 95.8468 153.858H94.4653C92.5887 153.858 90.789 153.108 89.4621 151.773C88.1352 150.438 87.3897 148.628 87.3897 146.74V138.232H87.371Z" fill="#1540BA"/>
<path d="M132.718 213.433H79.1193V216.757H132.718V213.433Z" fill="#7AA5EA"/>
<path d="M132.718 228.89H79.1193V232.214H132.718V228.89Z" fill="#7AA5EA"/>
<path d="M146.29 213.433H139.122V220.645H146.29V213.433Z" fill="#037EE6"/>
<path d="M146.29 224.495H139.122V231.707H146.29V224.495Z" fill="#03EB97"/>
<path d="M32.6707 286.099C32.0704 285.703 31.5535 285.193 31.1496 284.597C30.7457 284 30.4628 283.329 30.3172 282.623C30.1715 281.916 30.1659 281.187 30.3006 280.479C30.4354 279.77 30.7079 279.095 31.1026 278.492L55.783 240.741L64.9122 246.789L40.2131 284.577C39.8177 285.176 39.3088 285.69 38.7155 286.091C38.1223 286.492 37.4562 286.771 36.7556 286.912C36.055 287.053 35.3336 287.054 34.6327 286.915C33.9317 286.775 33.265 286.498 32.6707 286.099Z" fill="#8C968C"/>
<path d="M72.4061 238.747L59.6793 230.324L50.6294 244.163L63.3562 252.586L72.4061 238.747Z" fill="#323232"/>
<path d="M99.8664 241.02C124.152 235.929 139.737 211.996 134.677 187.564C129.617 163.132 105.827 147.453 81.5414 152.543C57.2557 157.634 41.6704 181.567 46.7306 205.999C51.7909 230.431 75.5806 246.11 99.8664 241.02Z" stroke="#646464" stroke-width="4" stroke-miterlimit="10"/>
<path opacity="0.31" d="M99.8664 241.02C124.152 235.929 139.737 211.996 134.677 187.564C129.617 163.132 105.827 147.453 81.5414 152.543C57.2557 157.634 41.6704 181.567 46.7306 205.999C51.7909 230.431 75.5806 246.11 99.8664 241.02Z" fill="white"/>
<path opacity="0.31" d="M121.498 204.211C119.284 207.597 116.123 210.247 112.412 211.825C108.702 213.403 104.609 213.839 100.653 213.077C96.6961 212.316 93.0528 210.391 90.1836 207.546C87.3144 204.701 85.3482 201.064 84.5335 197.095C83.7189 193.126 84.0925 189.004 85.607 185.248C87.1215 181.493 89.7089 178.274 93.0421 175.998C96.3753 173.722 100.304 172.491 104.333 172.462C108.361 172.432 112.308 173.605 115.673 175.832C120.186 178.819 123.335 183.486 124.428 188.808C125.52 194.13 124.466 199.671 121.498 204.211Z" fill="white"/>
</g>
<defs>
<clipPath id="clip0_136_6910">
<rect width="232" height="287" fill="white"/>
</clipPath>
</defs>
</svg>
