<svg width="12" height="12" viewBox="0 0 12 12" fill="none" xmlns="http://www.w3.org/2000/svg">
<g clip-path="url(#clip0_134_1261)">
<path d="M6.35156 4.72275V5.86871C7.01953 5.30209 7.88342 4.95959 8.82587 4.95959C10.1452 4.95959 11.3109 5.63022 12 6.64847V2.67188L6.35156 4.72275Z" fill="#1857CD"/>
<path d="M0 9.75677L5.64844 11.7913V10.9256C5.23663 10.3151 4.99594 9.5799 4.99594 8.78961C4.99594 7.99933 5.23663 7.26416 5.64844 6.6535V4.72275L0 2.67188V9.75677Z" fill="#1857CD"/>
<path d="M11.6395 2.05463L6.00003 0.0234375L3.78125 0.822601L9.40479 2.86597L11.6395 2.05463Z" fill="#1857CD"/>
<path d="M8.37503 3.23975L2.74728 1.19482L0.360596 2.0545L6.00006 4.10199L8.37503 3.23975Z" fill="#1857CD"/>
<path d="M8.63248 8.57703L8.29126 8.65897L8.51923 8.92575L8.49167 9.27567L8.81586 9.14136L9.14014 9.27567L9.11258 8.92575L9.34045 8.65897L8.99924 8.57703L8.81586 8.27783L8.63248 8.57703Z" fill="#1857CD"/>
<path d="M8.82578 5.61572C7.07584 5.61572 5.6521 7.03946 5.6521 8.78949C5.6521 10.5394 7.07584 11.9632 8.82578 11.9632C10.5758 11.9632 11.9995 10.5394 11.9995 8.78949C11.9995 7.03946 10.5758 5.61572 8.82578 5.61572ZM9.93091 10.3641L8.8157 9.90222L7.7005 10.3641L7.79526 9.16074L7.01129 8.24292L8.185 7.96112L8.8157 6.93188L9.44641 7.96112L10.6201 8.24292L9.83624 9.16074L9.93091 10.3641Z" fill="#1857CD"/>
</g>
<defs>
<clipPath id="clip0_134_1261">
<rect width="12" height="12" fill="white"/>
</clipPath>
</defs>
</svg>
