<svg width="21" height="21" viewBox="0 0 21 21" fill="none" xmlns="http://www.w3.org/2000/svg">
<path fill-rule="evenodd" clip-rule="evenodd" d="M13.2685 5.3222C13.5442 5.32598 13.8206 5.32977 14.0979 5.33261C17.0775 5.33261 19.25 7.45689 19.25 10.3904V14.1585C19.25 17.092 17.0775 19.2163 14.0979 19.2163C12.9043 19.2416 11.7108 19.25 10.5086 19.25C9.30644 19.25 8.09569 19.2416 6.90212 19.2163C3.92248 19.2163 1.75001 17.092 1.75001 14.1585V10.3904C1.75001 7.45689 3.92248 5.33261 6.9107 5.33261C8.03558 5.31575 9.18622 5.29889 10.354 5.29889V5.15559C10.354 4.57394 9.86458 4.10188 9.28067 4.10188H8.43058C7.46026 4.10188 6.67027 3.32635 6.67027 2.38223C6.67027 2.03661 6.96223 1.75 7.31429 1.75C7.67493 1.75 7.9583 2.03661 7.9583 2.38223C7.9583 2.63512 8.17297 2.83743 8.43058 2.83743H9.28067C10.5773 2.84586 11.6335 3.88271 11.6421 5.14716V5.30732C12.1834 5.30732 12.7247 5.31475 13.2685 5.3222ZM9.49535 12.9025H8.59373V13.796C8.59373 14.1416 8.30177 14.4282 7.94971 14.4282C7.58907 14.4282 7.3057 14.1416 7.3057 13.796V12.9025H6.39549C6.04343 12.9025 5.75148 12.6243 5.75148 12.2702C5.75148 11.9246 6.04343 11.638 6.39549 11.638H7.3057V10.7529C7.3057 10.4073 7.58907 10.1207 7.94971 10.1207C8.30177 10.1207 8.59373 10.4073 8.59373 10.7529V11.638H9.49535C9.84741 11.638 10.1394 11.9246 10.1394 12.2702C10.1394 12.6243 9.84741 12.9025 9.49535 12.9025ZM13.1448 11.4778H13.2306C13.5827 11.4778 13.8746 11.1997 13.8746 10.8456C13.8746 10.5 13.5827 10.2134 13.2306 10.2134H13.1448C12.7841 10.2134 12.5007 10.5 12.5007 10.8456C12.5007 11.1997 12.7841 11.4778 13.1448 11.4778ZM14.6131 14.3776H14.699C15.051 14.3776 15.343 14.0995 15.343 13.7454C15.343 13.3998 15.051 13.1132 14.699 13.1132H14.6131C14.2516 13.1132 13.9691 13.3998 13.9691 13.7454C13.9691 14.0995 14.2516 14.3776 14.6131 14.3776Z" fill="white"/>
</svg>
