<svg width="20" height="20" viewBox="0 0 20 20" fill="none" xmlns="http://www.w3.org/2000/svg">
<g clip-path="url(#clip0_126_1685)">
<path fill-rule="evenodd" clip-rule="evenodd" d="M8.564 2.81204L9.92188 3.5022V0H6.67969V3.5022L8.03619 2.81281C8.19626 2.73163 8.39142 2.72507 8.564 2.81204Z" fill="white"/>
<path fill-rule="evenodd" clip-rule="evenodd" d="M16.6016 7.07962V0.585938C16.6016 0.262299 16.3393 0 16.0156 0H11.0938V4.45557C11.0938 4.87686 10.6442 5.20111 10.2052 4.95728L8.30078 3.98956L6.35696 4.97742C5.9668 5.17502 5.50888 4.88663 5.50919 4.45557L5.50781 0H0.585938C0.262299 0 0 0.262299 0 0.585938V16.0156C0 16.3393 0.262299 16.6016 0.585938 16.6016H7.07962C6.35681 14.8206 6.36444 12.8395 7.09976 11.0645C8.63739 7.35214 12.8781 5.56854 16.6016 7.07962Z" fill="white"/>
<path fill-rule="evenodd" clip-rule="evenodd" d="M18.2008 9.51401C17.0892 8.4024 15.5536 7.71484 13.8574 7.71484C12.1613 7.71484 10.6256 8.4024 9.51401 9.51401C8.4024 10.6256 7.71484 12.1613 7.71484 13.8574C7.71484 15.5536 8.4024 17.0892 9.51401 18.2008C10.6256 19.3124 12.1613 20 13.8574 20C15.5536 20 17.0892 19.3124 18.2008 18.2008C19.3124 17.0892 20 15.5536 20 13.8574C20 12.1613 19.3124 10.6256 18.2008 9.51401ZM16.3275 15.7808C15.9174 16.1909 15.3508 16.4453 14.7264 16.4453H11.9922C11.6685 16.4453 11.4062 16.183 11.4062 15.8594C11.4062 15.5357 11.6685 15.2734 11.9922 15.2734H14.7264C15.3282 15.2734 15.8203 14.7813 15.8203 14.1795C15.8203 13.8541 15.7187 13.5878 15.499 13.3682C15.3008 13.1699 15.0273 13.0469 14.7264 13.0469H13.0942L13.4422 13.3943C13.6711 13.6218 13.6722 13.9919 13.4447 14.2206C13.2172 14.4495 12.8471 14.4504 12.6184 14.2229L11.272 12.879C11.0431 12.6515 11.0422 12.2816 11.2697 12.0528L12.6135 10.7065C12.841 10.4778 13.2109 10.4767 13.4398 10.7042C13.6685 10.9317 13.6696 11.3016 13.4421 11.5305L13.0981 11.875H14.7264C15.9752 11.875 16.9922 12.892 16.9922 14.1408C16.9922 14.7911 16.7587 15.3496 16.3275 15.7808Z" fill="white"/>
</g>
<defs>
<clipPath id="clip0_126_1685">
<rect width="20" height="20" fill="white"/>
</clipPath>
</defs>
</svg>
