<svg width="25" height="24" viewBox="0 0 25 24" fill="none" xmlns="http://www.w3.org/2000/svg">
<path d="M7.75 2H6.75C3.75 2 2.75 3.79 2.75 6V7V21C2.75 21.83 3.69 22.3 4.35 21.8L6.06 20.52C6.46 20.22 7.02 20.26 7.38 20.62L9.04 22.29C9.43 22.68 10.07 22.68 10.46 22.29L12.14 20.61C12.49 20.26 13.05 20.22 13.44 20.52L15.15 21.8C15.81 22.29 16.75 21.82 16.75 21V4C16.75 2.9 17.65 2 18.75 2H7.75ZM6.72 14.01C6.17 14.01 5.72 13.56 5.72 13.01C5.72 12.46 6.17 12.01 6.72 12.01C7.27 12.01 7.72 12.46 7.72 13.01C7.72 13.56 7.27 14.01 6.72 14.01ZM6.72 10.01C6.17 10.01 5.72 9.56 5.72 9.01C5.72 8.46 6.17 8.01 6.72 8.01C7.27 8.01 7.72 8.46 7.72 9.01C7.72 9.56 7.27 10.01 6.72 10.01ZM12.75 13.76H9.75C9.34 13.76 9 13.42 9 13.01C9 12.6 9.34 12.26 9.75 12.26H12.75C13.16 12.26 13.5 12.6 13.5 13.01C13.5 13.42 13.16 13.76 12.75 13.76ZM12.75 9.76H9.75C9.34 9.76 9 9.42 9 9.01C9 8.6 9.34 8.26 9.75 8.26H12.75C13.16 8.26 13.5 8.6 13.5 9.01C13.5 9.42 13.16 9.76 12.75 9.76Z" fill="#1857CD"/>
<path d="M18.76 2V3.5C19.42 3.5 20.05 3.77 20.51 4.22C20.99 4.71 21.25 5.34 21.25 6V8.42C21.25 9.16 20.92 9.5 20.17 9.5H18.25V4.01C18.25 3.73 18.48 3.5 18.76 3.5V2ZM18.76 2C17.65 2 16.75 2.9 16.75 4.01V11H20.17C21.75 11 22.75 10 22.75 8.42V6C22.75 4.9 22.3 3.9 21.58 3.17C20.85 2.45 19.86 2.01 18.76 2C18.77 2 18.76 2 18.76 2Z" fill="#1857CD"/>
</svg>
