<svg width="20" height="20" viewBox="0 0 20 20" fill="none" xmlns="http://www.w3.org/2000/svg">
<path d="M10 12.1484C13.2253 12.1484 15.8398 9.53385 15.8398 6.30859C15.8398 3.08334 13.2253 0.46875 10 0.46875C6.77474 0.46875 4.16016 3.08334 4.16016 6.30859C4.16016 9.53385 6.77474 12.1484 10 12.1484Z" fill="white"/>
<path d="M10 10.5078C12.3192 10.5078 14.1992 8.62776 14.1992 6.30859C14.1992 3.98943 12.3192 2.10938 10 2.10938C7.68084 2.10938 5.80078 3.98943 5.80078 6.30859C5.80078 8.62776 7.68084 10.5078 10 10.5078Z" fill="white"/>
<path d="M7.03203 9.27656L5.8707 10.4379C6.92734 11.4949 8.3875 12.1484 10 12.1484V10.5078C8.84219 10.5078 7.79219 10.0367 7.03203 9.27656ZM5.8707 2.1793C4.81367 3.23594 4.16016 4.69609 4.16016 6.30859H5.80078C5.80078 5.15078 6.27188 4.10078 7.03203 3.34062L5.8707 2.1793ZM14.1992 6.30859C14.1992 7.46641 13.7281 8.51641 12.968 9.27656L14.1293 10.4379C15.1863 9.38125 15.8398 7.92109 15.8398 6.30859H14.1992ZM10 0.46875V2.10938C11.1578 2.10938 12.2078 2.58047 12.968 3.34062L14.1293 2.1793C13.0727 1.12227 11.6125 0.46875 10 0.46875Z" fill="white"/>
<path d="M10.5058 4.42051L10.8605 4.9877C10.9117 5.06934 10.9926 5.12832 11.0859 5.15176L11.7351 5.31387C12.1629 5.42051 12.3308 5.93809 12.0476 6.27559L11.6176 6.78809C11.5555 6.86191 11.5246 6.95684 11.5312 7.05332L11.5777 7.72051C11.6086 8.15996 11.168 8.47988 10.7594 8.31504L10.139 8.06465C10.0496 8.02871 9.94959 8.02871 9.86014 8.06465L9.23983 8.31504C8.83123 8.47988 8.391 8.16035 8.42147 7.72051L8.46795 7.05332C8.47459 6.95723 8.44373 6.86191 8.38162 6.78809L7.95155 6.27559C7.66834 5.93809 7.8367 5.42051 8.26405 5.31387L8.91326 5.15176C9.00701 5.12832 9.08787 5.06973 9.13866 4.9877L9.49334 4.42051C9.72694 4.04668 10.2711 4.04668 10.5047 4.42051H10.5058Z" fill="#EBEBEB"/>
<path d="M14.7852 14.6094H4.94141C4.26172 14.6094 3.71094 14.0586 3.71094 13.3789C3.71094 12.6992 4.26172 12.1484 4.94141 12.1484H14.7852C15.4648 12.1484 16.0156 12.6992 16.0156 13.3789C16.0156 14.0586 15.4648 14.6094 14.7852 14.6094Z" fill="white"/>
<path d="M6.17188 12.1484H8.63281V14.6094H6.17188V12.1484Z" fill="white"/>
<path d="M11.0938 12.1484H13.5547V14.6094H11.0938V12.1484Z" fill="white"/>
<path d="M14.7852 19.5312H4.94141C4.26172 19.5312 3.71094 18.9805 3.71094 18.3008C3.71094 17.6211 4.26172 17.0703 4.94141 17.0703H14.7852C15.4648 17.0703 16.0156 17.6211 16.0156 18.3008C16.0156 18.9805 15.4648 19.5312 14.7852 19.5312Z" fill="white"/>
<path d="M6.17188 17.0703H8.63281V19.5312H6.17188V17.0703Z" fill="white"/>
<path d="M11.0938 17.0703H13.5547V19.5312H11.0938V17.0703Z" fill="white"/>
<path d="M15.9961 17.0703H6.15234C5.47266 17.0703 4.92188 16.5195 4.92188 15.8398C4.92188 15.1602 5.47266 14.6094 6.15234 14.6094H15.9961C16.6758 14.6094 17.2266 15.1602 17.2266 15.8398C17.2266 16.5195 16.6758 17.0703 15.9961 17.0703Z" fill="white"/>
<path d="M7.38281 14.6094H9.84375V17.0703H7.38281V14.6094Z" fill="white"/>
<path d="M12.3047 14.6094H14.7656V17.0703H12.3047V14.6094Z" fill="white"/>
</svg>
