<svg width="20" height="20" viewBox="0 0 20 20" fill="none" xmlns="http://www.w3.org/2000/svg">
<path d="M10.6992 1.90234L10.6457 2.51457L10.5921 3.12684L10.5567 3.53141L10.3718 5.645H12.8853L13.0825 3.39063L13.1056 3.12684L13.1591 2.51457L13.2127 1.90234H10.6992Z" fill="white"/>
<path d="M19.8391 2.10094C19.7232 1.97437 19.5594 1.90234 19.3878 1.90234H14.4418L14.3883 2.51457L14.3836 2.56793L14.3348 3.12684L14.0562 6.31059C14.0545 6.33043 14.0518 6.34992 14.0483 6.3691C14.0457 6.38359 14.042 6.39773 14.0383 6.41188C14.0372 6.41637 14.0364 6.42106 14.0352 6.42551C14.0303 6.44254 14.0245 6.4591 14.0184 6.47547C14.0178 6.47688 14.0175 6.47832 14.0169 6.47973C14.0105 6.49625 14.0032 6.51234 13.9955 6.52813C13.9949 6.52918 13.9945 6.53035 13.9939 6.53148C13.9868 6.54582 13.9788 6.55961 13.9706 6.57324C13.9691 6.57566 13.9679 6.57816 13.9664 6.58059C13.9589 6.59262 13.9507 6.6041 13.9424 6.61547C13.9397 6.61918 13.9374 6.62313 13.9346 6.62668C13.9274 6.63613 13.9196 6.645 13.9119 6.65402C13.9075 6.65922 13.9034 6.66469 13.8989 6.66965C13.8923 6.67688 13.8852 6.68344 13.8783 6.69031C13.872 6.6966 13.8659 6.70313 13.8594 6.70914C13.8534 6.71465 13.8469 6.71957 13.8407 6.72484C13.8327 6.73152 13.825 6.73852 13.8166 6.74484C13.8109 6.74922 13.8046 6.75309 13.7986 6.75731C13.7894 6.76383 13.7804 6.77055 13.7708 6.77652C13.7641 6.7807 13.757 6.78422 13.7502 6.78816C13.7409 6.79348 13.7318 6.7991 13.7223 6.80387C13.7114 6.80938 13.7003 6.81398 13.6891 6.81879C13.6831 6.82137 13.6774 6.82438 13.6713 6.82676C13.6014 6.85441 13.5257 6.86957 13.4469 6.86957C13.4466 6.86957 13.4462 6.86953 13.446 6.86953H9.70512C9.7048 6.86953 9.70453 6.86957 9.70426 6.86957C9.68637 6.86957 9.6684 6.86879 9.65023 6.86719C9.64844 6.86703 9.64672 6.8666 9.64492 6.86645C9.63523 6.86551 9.62566 6.86383 9.61602 6.86242C9.60457 6.86078 9.59309 6.85934 9.58187 6.85707C9.57391 6.85543 9.56609 6.85324 9.5582 6.85129C9.54551 6.84824 9.53289 6.84512 9.52059 6.84129C9.51402 6.83922 9.50762 6.83672 9.50113 6.83441C9.48789 6.82981 9.47477 6.82504 9.46203 6.81957C9.45594 6.81699 9.45008 6.81395 9.44406 6.81117C9.43145 6.80523 9.41895 6.79918 9.40684 6.79242C9.40059 6.78895 9.39453 6.78516 9.38848 6.78148C9.37715 6.77469 9.36594 6.7677 9.35512 6.7602C9.34863 6.7557 9.34234 6.75094 9.33602 6.74621C9.32609 6.73871 9.31637 6.73105 9.30695 6.72309C9.30047 6.71754 9.29414 6.71188 9.28785 6.70602C9.27906 6.69793 9.27063 6.68961 9.26238 6.68105C9.25906 6.67754 9.25539 6.67453 9.25215 6.67098C9.24941 6.66797 9.24703 6.66461 9.24434 6.66152C9.23664 6.65266 9.22918 6.64359 9.22191 6.6343C9.21648 6.62734 9.21105 6.62047 9.20594 6.61332C9.19887 6.60348 9.19234 6.59336 9.18594 6.58313C9.18156 6.57617 9.17703 6.56934 9.17297 6.56223C9.16641 6.55078 9.16043 6.53895 9.15461 6.52707C9.15156 6.52082 9.1482 6.51465 9.14535 6.50828C9.13918 6.49457 9.13375 6.48039 9.12859 6.46621C9.12684 6.46137 9.12477 6.45656 9.12309 6.45164C9.11758 6.43523 9.11301 6.41844 9.10887 6.40148C9.10812 6.39848 9.10711 6.39551 9.10645 6.39242C9.10223 6.37383 9.09898 6.35488 9.09656 6.3357C9.09637 6.3341 9.09594 6.3325 9.09574 6.33094C9.09336 6.31156 9.09211 6.29195 9.0916 6.27215C9.0916 6.27066 9.09137 6.26926 9.09137 6.26777C9.09102 6.24672 9.09168 6.22547 9.09359 6.20402L9.36277 3.12691L9.41629 2.51469L9.42098 2.46133V2.46125L9.46984 1.90242H4.41711C4.09969 1.90242 3.83484 2.14508 3.80719 2.46129L3.52867 5.64508H2.23402C1.8959 5.64508 1.6218 5.91922 1.6218 6.25731C1.6218 6.59539 1.89594 6.86953 2.23402 6.86953H3.42148H4.03605H4.65066H5.97672C6.31484 6.86953 6.58895 7.14367 6.58895 7.48176C6.58895 7.81988 6.3148 8.09402 5.97672 8.09402H4.54352H3.92895H3.31437L3.20125 9.38766H0.612227C0.274141 9.38766 0 9.66176 0 9.99988C0 10.338 0.274141 10.6121 0.612227 10.6121H3.09406H3.70867H4.32324H4.35492C4.69305 10.6121 4.96715 10.8863 4.96715 11.2243C4.96715 11.5625 4.69301 11.8366 4.35492 11.8366H4.21613H3.60152H2.98695L2.87383 13.1302H1.54793C1.2098 13.1302 0.935703 13.4044 0.935703 13.7425C0.935703 14.0806 1.20984 14.3547 1.54793 14.3547H2.76668H3.38125H3.99586H5.29063C5.62875 14.3547 5.90285 14.6289 5.90285 14.967C5.90285 15.305 5.62871 15.5792 5.29063 15.5792H3.88867H3.27406H2.65949L2.49742 17.4318C2.48246 17.6028 2.53996 17.7722 2.65594 17.8988C2.77191 18.0253 2.9357 18.0973 3.10734 18.0973H18.078C18.3955 18.0973 18.6603 17.8547 18.688 17.5384L19.9977 2.56793C20.0127 2.39691 19.9551 2.22746 19.8391 2.10094ZM12.7914 14.3548H9.04883C8.7107 14.3548 8.4366 14.0807 8.4366 13.7426C8.4366 13.4045 8.71074 13.1304 9.04883 13.1304H12.7914C13.1296 13.1304 13.4037 13.4045 13.4037 13.7426C13.4037 14.0807 13.1296 14.3548 12.7914 14.3548Z" fill="white"/>
</svg>
