<svg width="20" height="20" viewBox="0 0 20 20" fill="none" xmlns="http://www.w3.org/2000/svg">
<g clip-path="url(#clip0_126_1651)">
<path d="M12.6162 7.26374C19.123 7.26374 18.6423 7.26237 18.7425 7.26625C18.6837 7.0415 18.5667 6.82892 18.3908 6.65307L16.6069 4.86911C16.2214 4.48358 15.6295 4.3715 15.134 4.59037C14.8679 4.70793 14.5509 4.6486 14.3451 4.4428C14.1393 4.23703 14.08 3.91997 14.1975 3.6539C14.4163 3.15848 14.3043 2.56656 13.9187 2.18099L12.1348 0.397032C11.606 -0.131673 10.7457 -0.131713 10.2169 0.397032L7.98499 2.62895C8.61397 3.25844 11.9888 6.6359 12.6162 7.26374Z" fill="white"/>
<path d="M7.15308 3.46094L3.35022 7.2638H10.9523C10.9386 7.25 10.6476 6.95874 7.15308 3.46094Z" fill="white"/>
<path d="M19.1556 13.5575C19.6607 13.362 20 12.8642 20 12.319V9.7961C20 9.04833 19.3916 8.43994 18.6439 8.43994H15.8824V19.9996H18.6439C19.3916 19.9996 20 19.3912 20 18.6434V16.1206C20 15.5754 19.6607 15.0775 19.1557 14.882C18.8844 14.7769 18.7021 14.5108 18.7021 14.2197C18.7021 13.9287 18.8844 13.6626 19.1556 13.5575Z" fill="white"/>
<path d="M0 9.7961V12.319C0 12.8642 0.339333 13.362 0.844353 13.5575C1.11565 13.6626 1.29788 13.9287 1.29788 14.2197C1.29788 14.5108 1.11561 14.7769 0.844314 14.882C0.339294 15.0775 0 15.5753 0 16.1206V18.6434C0 19.3912 0.608392 19.9996 1.35616 19.9996H14.7059V8.43994H1.35616C0.608392 8.43994 0 9.04829 0 9.7961ZM4.11765 11.1761H12.9412V12.3525H4.11765V11.1761ZM4.11765 13.529H12.9412V14.7055H4.11765V13.529ZM4.11765 15.8819H12.9412V17.0584H4.11765V15.8819Z" fill="white"/>
</g>
<defs>
<clipPath id="clip0_126_1651">
<rect width="20" height="20" fill="white"/>
</clipPath>
</defs>
</svg>
