<svg width="24" height="24" viewBox="0 0 24 24" fill="none" xmlns="http://www.w3.org/2000/svg">
<g clip-path="url(#clip0_82_1355)">
<path d="M15.1394 8.7159C22.9476 8.7159 22.3708 8.71425 22.491 8.71891C22.4204 8.44922 22.28 8.19411 22.069 7.9831L19.9283 5.84235C19.4657 5.37971 18.7555 5.24522 18.1608 5.50785C17.8415 5.64894 17.4611 5.57774 17.2141 5.33077C16.9671 5.08385 16.896 4.70338 17.037 4.38409C17.2996 3.78959 17.1652 3.07929 16.7025 2.61661L14.5618 0.475853C13.9272 -0.158594 12.8948 -0.158641 12.2603 0.475853L9.582 3.15416C10.3368 3.90955 14.3866 7.96249 15.1394 8.7159Z" fill="#1857CD"/>
<path d="M8.58373 4.15234L4.02029 8.71578H13.1428C13.1263 8.69921 12.7772 8.34971 8.58373 4.15234Z" fill="#1857CD"/>
<path d="M22.9867 16.2691C23.5928 16.0344 24 15.4371 24 14.7828V11.7553C24 10.858 23.2699 10.1279 22.3726 10.1279H19.0588V23.9995H22.3726C23.2699 23.9995 24 23.2694 24 22.3721V19.3447C24 18.6904 23.5929 18.0931 22.9868 17.8584C22.6612 17.7323 22.4425 17.4129 22.4425 17.0637C22.4425 16.7145 22.6612 16.3951 22.9867 16.2691Z" fill="#1857CD"/>
<path d="M0 11.7553V14.7828C0 15.4371 0.4072 16.0344 1.01322 16.269C1.33878 16.3951 1.55746 16.7145 1.55746 17.0637C1.55746 17.4129 1.33873 17.7323 1.01318 17.8584C0.407153 18.0931 0 18.6904 0 19.3447V22.3721C0 23.2694 0.730071 23.9995 1.62739 23.9995H17.6471V10.1279H1.62739C0.730071 10.1279 0 10.858 0 11.7553ZM4.94118 13.4113H15.5294V14.823H4.94118V13.4113ZM4.94118 16.2348H15.5294V17.6466H4.94118V16.2348ZM4.94118 19.0583H15.5294V20.4701H4.94118V19.0583Z" fill="#1857CD"/>
</g>
<defs>
<clipPath id="clip0_82_1355">
<rect width="24" height="24" fill="white"/>
</clipPath>
</defs>
</svg>
