<svg width="21" height="20" viewBox="0 0 21 20" fill="none" xmlns="http://www.w3.org/2000/svg">
<path fill-rule="evenodd" clip-rule="evenodd" d="M15.7289 10.2573C14.7713 10.2573 13.8725 10.449 13.1165 10.774C15.7625 11.5323 17.6357 13.349 17.6861 15.474C19.0637 15.299 20.5505 14.7823 20.5505 13.374C20.5505 11.6823 18.3413 10.2573 15.7289 10.2573Z" fill="white"/>
<path fill-rule="evenodd" clip-rule="evenodd" d="M15.7037 9.05736H15.7205C17.5097 9.05736 18.9713 7.60739 18.9713 5.84072C18.9713 4.06572 17.5097 2.61572 15.7205 2.61572C15.3677 2.61572 15.0317 2.67406 14.7125 2.77406C15.2921 3.62406 15.6281 4.64906 15.6281 5.75739C15.6365 6.88239 15.2837 7.96572 14.6201 8.8657C14.9645 8.9907 15.3257 9.05736 15.7037 9.05736Z" fill="white"/>
<path fill-rule="evenodd" clip-rule="evenodd" d="M7.4549 10.7657C6.6989 10.449 5.8001 10.2573 4.8509 10.2573C2.2385 10.2573 0.0292969 11.6823 0.0292969 13.374C0.0292969 14.7823 1.5077 15.2907 2.8853 15.474C2.9273 13.349 4.8005 11.5323 7.4549 10.7657Z" fill="white"/>
<path fill-rule="evenodd" clip-rule="evenodd" d="M4.85092 9.05736H4.87612C5.25412 9.05736 5.61532 8.9907 5.95972 8.8657C5.32132 7.99906 4.94332 6.92406 4.94332 5.75739C4.94332 4.64906 5.27932 3.62406 5.85892 2.77406C5.53972 2.67406 5.20372 2.61572 4.85092 2.61572C3.06172 2.61572 1.60852 4.06572 1.60852 5.84072C1.60852 7.60739 3.06172 9.05736 4.85092 9.05736Z" fill="white"/>
<path fill-rule="evenodd" clip-rule="evenodd" d="M10.2854 11.6211C6.95815 11.6211 4.14667 13.4178 4.14667 15.5444C4.14667 18.2944 8.76665 18.2944 10.2854 18.2944C12.9213 18.2944 16.4258 18.0111 16.4258 15.5619C16.4258 13.4253 13.6135 11.6211 10.2854 11.6211Z" fill="white"/>
<path fill-rule="evenodd" clip-rule="evenodd" d="M10.2862 9.81223H10.3139C11.4017 9.80889 12.4232 9.38473 13.1892 8.61889C13.9562 7.85307 14.3762 6.83723 14.372 5.75973C14.372 3.5239 12.5399 1.70557 10.2862 1.70557C8.03333 1.70557 6.20129 3.5239 6.20129 5.75973C6.20129 7.9939 8.03333 9.81223 10.2862 9.81223Z" fill="white"/>
</svg>
