<svg width="24" height="24" viewBox="0 0 24 24" fill="none" xmlns="http://www.w3.org/2000/svg">
<path d="M21.187 10.0068C20.8622 9.81794 20.5704 9.57746 20.323 9.29475C20.348 8.90117 20.4418 8.515 20.6 8.15376C20.891 7.33276 21.22 6.40275 20.692 5.67975C20.164 4.95675 19.167 4.97975 18.292 4.99975C17.9054 5.03954 17.5148 5.01316 17.137 4.92175C16.9357 4.59426 16.792 4.23474 16.712 3.85875C16.464 3.01375 16.181 2.05876 15.312 1.77275C14.474 1.50275 13.698 2.09675 13.012 2.61875C12.716 2.88907 12.373 3.10293 12 3.24976C11.6231 3.10413 11.2763 2.89021 10.977 2.61875C10.293 2.09975 9.52001 1.49976 8.67801 1.77376C7.81101 2.05576 7.52801 3.01375 7.27801 3.85875C7.19814 4.23352 7.05582 4.59219 6.85701 4.91975C6.47853 5.01091 6.08744 5.03796 5.70001 4.99975C4.82201 4.97575 3.83301 4.94975 3.30001 5.67975C2.76701 6.40975 3.10001 7.33275 3.39201 8.15275C3.55245 8.51347 3.64759 8.89979 3.67301 9.29375C3.42609 9.57683 3.13458 9.81767 2.81001 10.0068C2.07801 10.5068 1.24701 11.0758 1.24701 11.9998C1.24701 12.9238 2.07801 13.4908 2.81001 13.9928C3.13451 14.1815 3.42601 14.422 3.67301 14.7048C3.65026 15.0986 3.55783 15.4852 3.40001 15.8468C3.11001 16.6668 2.78201 17.5968 3.30901 18.3198C3.83601 19.0428 4.83001 19.0198 5.70901 18.9998C6.09598 18.9599 6.4869 18.9863 6.86501 19.0778C7.06539 19.4056 7.20875 19.765 7.28901 20.1408C7.53701 20.9858 7.82001 21.9408 8.68901 22.2268C8.82833 22.2714 8.9737 22.2944 9.12001 22.2948C9.82322 22.1938 10.4768 21.8741 10.988 21.3808C11.284 21.1104 11.627 20.8966 12 20.7498C12.3769 20.8954 12.7237 21.1093 13.023 21.3808C13.708 21.9038 14.484 22.5008 15.323 22.2258C16.19 21.9438 16.473 20.9858 16.723 20.1418C16.8031 19.7663 16.9465 19.4072 17.147 19.0798C17.524 18.988 17.9139 18.9609 18.3 18.9998C19.178 19.0208 20.167 19.0498 20.7 18.3198C21.233 17.5898 20.9 16.6668 20.608 15.8458C20.4487 15.4854 20.3536 15.0999 20.327 14.7068C20.5741 14.4234 20.8659 14.1826 21.191 13.9938C21.923 13.4938 22.754 12.9238 22.754 11.9998C22.754 11.0758 21.92 10.5078 21.187 10.0068Z" fill="#1857CD"/>
<path d="M11 14.75C10.9015 14.7502 10.8039 14.7308 10.713 14.6931C10.622 14.6553 10.5394 14.5999 10.47 14.53L8.47 12.53C8.33752 12.3878 8.2654 12.1998 8.26882 12.0055C8.27225 11.8112 8.35097 11.6258 8.48838 11.4884C8.62579 11.351 8.81118 11.2723 9.00548 11.2688C9.19978 11.2654 9.38782 11.3375 9.53 11.47L11.07 13.01L14.55 10.4C14.7091 10.2807 14.9092 10.2294 15.1061 10.2575C15.303 10.2857 15.4807 10.3909 15.6 10.55C15.7193 10.7091 15.7706 10.9092 15.7425 11.1061C15.7143 11.303 15.6091 11.4807 15.45 11.6L11.45 14.6C11.3201 14.6973 11.1623 14.7499 11 14.75Z" fill="white"/>
</svg>
